<svg xmlns="http://www.w3.org/2000/svg" viewBox="0 0 440 92" role="img" aria-label="Benedict Peters"><defs><linearGradient id="g" x1="0" x2="1"><stop stop-color="#f6b51b"/><stop offset="1" stop-color="#e55320"/></linearGradient></defs><rect x="2" y="2" width="82" height="82" rx="24" fill="#18140f"/><path d="M20 24h42c13 0 20 7 20 17 0 8-4 13-11 16 8 3 12 9 12 17 0 12-9 19-24 19H20V24zm17 14v13h20c5 0 8-2 8-6s-3-7-8-7H37zm0 27v14h22c5 0 8-3 8-7s-3-7-9-7H37z" fill="url(#g)" transform="translate(-2,-12) scale(.9)"/><path d="M70 18l8 8-8 8M15 70l8-8 8 8" fill="none" stroke="#f6b51b" stroke-width="4" stroke-linecap="round"/><text x="105" y="45" font-family="Arial,Helvetica,sans-serif" font-size="31" font-weight="800" fill="#1b1917">BENEDICT PETERS</text><text x="106" y="68" font-family="Arial,Helvetica,sans-serif" font-size="14" font-weight="700" letter-spacing="2.4" fill="#9a6a16">FORTUNE TIGER GUIDES</text></svg>